<svg width="120" height="120" viewBox="0 0 120 120" fill="none" xmlns="http://www.w3.org/2000/svg">
<circle cx="60" cy="60" r="56.5" fill="white" stroke="#613500" stroke-width="7"/>
<path d="M70.8036 79.9636L58.3002 61.7973L56.5197 59.2113L42.011 38.1315H48.252L59.9853 55.1793L61.7657 57.7652L77.0445 79.9636H70.8036ZM79.6246 78.1891L63.8765 55.3102L62.0961 52.7227L50.8309 36.3566L49.8972 35.0003H36.0547L39.4306 39.906L54.409 61.6691L56.1895 64.2539L68.2243 81.74L69.1581 83.0947H83.0007L79.6246 78.1891Z" fill="#613500"/>
<path d="M56.5191 59.2113L58.2996 61.7973L56.1889 64.2539L39.9936 83.0947H36L54.4083 61.6691L56.5191 59.2113Z" fill="#613500"/>
<path d="M81.3332 34.9998L63.8756 55.3096L61.7648 57.7646L59.9844 55.1787L62.0952 52.7221L73.9207 38.9578L77.3395 34.9998H81.3332Z" fill="#613500"/>
</svg>
