<svg width="120" height="120" viewBox="0 0 120 120" fill="none" xmlns="http://www.w3.org/2000/svg">
<circle cx="60" cy="60" r="56.5" fill="white" stroke="#613500" stroke-width="7"/>
<path d="M33.5156 60.153L41.8232 56.5185V47.1725L51.1692 52.3647L59.4767 48.7301L41.8232 38.3457L33.5156 42.4995V60.153Z" fill="#613500"/>
<path d="M86.999 42.4998L79.7299 38.8652L70.3839 44.0574L76.6146 47.1728L33 67.4224V77.8068L39.7499 80.9222L49.6151 76.7684L43.3844 73.1339L86.999 53.4034V42.4998Z" fill="#613500"/>
<path d="M87.0001 76.7684V60.1533L79.2118 63.2686V72.6146L69.3466 67.9416L61.0391 72.6146L79.2118 81.4414L87.0001 76.7684Z" fill="#613500"/>
<path d="M60.5154 81.9607L55.8424 79.8838L47.0156 84.0376L60.5154 91.3067L74.0151 84.0376L66.2268 79.8838L60.5154 81.9607Z" fill="#613500"/>
<path d="M60.5154 29L47.0156 35.7499L55.3232 40.9421L60.5154 38.346L64.6692 40.9421L74.0151 36.7883L60.5154 29Z" fill="#613500"/>
</svg>
