<svg width="120" height="120" viewBox="0 0 120 120" fill="none" xmlns="http://www.w3.org/2000/svg">
<circle cx="60" cy="60" r="56.5" fill="white" stroke="#613500" stroke-width="7"/>
<path d="M86.8918 37.9939C86.6947 37.4053 86.4595 37.2504 86.092 37.1032C85.2884 36.8012 83.9272 37.2581 83.9272 37.2581C83.9272 37.2581 35.7372 54.8229 32.9841 56.7668C32.3913 57.185 32.1927 57.4328 32.0942 57.7193C31.6183 59.0979 33.101 59.7097 33.101 59.7097L45.5218 63.8143C45.5218 63.8143 45.9847 63.884 46.1497 63.7756C48.9754 61.9634 74.5787 45.5758 76.0553 45.0259C76.2883 44.9562 76.4609 45.0337 76.4151 45.1963C75.8238 47.3029 53.5862 67.3381 53.5862 67.3381C53.5862 67.3381 53.5014 67.4465 53.448 67.5705L53.4189 67.555L52.2601 80.047C52.2601 80.047 51.7743 83.8728 55.5487 80.047C58.2116 77.3441 60.7882 75.0827 62.0776 73.9907C66.3485 76.9801 70.9448 80.2871 72.9287 82.0141C73.9248 82.8815 74.7582 83.0209 75.4442 82.9977C77.3272 82.928 77.8527 80.8292 77.8527 80.8292C77.8527 80.8292 86.6344 44.995 86.9277 40.1933C86.9567 39.7209 86.9965 39.4266 86.9995 39.1013C87.0049 38.6521 86.9636 38.203 86.8918 37.9939Z" fill="#613500"/>
</svg>
